HIERARCHY
ROOT root
{
	OFFSET	0	13.1	24.9
	CHANNELS 6  Xposition Yposition Zposition Xrotation Yrotation Zrotation
	JOINT spine_1
	{
		OFFSET	0	9.99999	0
		CHANNELS 3  Xrotation Yrotation Zrotation
		JOINT spine_2
		{
			OFFSET	0	112	-10
			CHANNELS 3  Xrotation Yrotation Zrotation
			JOINT spine_3
			{
				OFFSET	0	206.5	19.3
				CHANNELS 3  Xrotation Yrotation Zrotation
				JOINT spine_4
				{
					OFFSET	0	110.4	14.6
					CHANNELS 3  Xrotation Yrotation Zrotation
					JOINT neck_1
					{
						OFFSET	0	71.8	-50.3
						CHANNELS 3  Xrotation Yrotation Zrotation
						JOINT neck_2
						{
							OFFSET	0	86.2	-25.8
							CHANNELS 3  Xrotation Yrotation Zrotation
							JOINT head_ee
							{
								OFFSET	0	179.8	-8.7
								CHANNELS 3  Xrotation Yrotation Zrotation
								End Site
								{
									OFFSET	1	0	0
								}
							}
						}
					}
					JOINT left_clavicle
					{
						OFFSET	-43.2	22.4	-70.8
						CHANNELS 3  Xrotation Yrotation Zrotation
						JOINT left_shoulder
						{
							OFFSET	-93.9	-5.79999	48.7
							CHANNELS 3  Xrotation Yrotation Zrotation
							JOINT left_elbow
							{
								OFFSET	-291.4	-30.8	15.2
								CHANNELS 3  Xrotation Yrotation Zrotation
								JOINT left_lowarm_twist
								{
									OFFSET	-110.7	-3.89999	13.6
									CHANNELS 3  Xrotation Yrotation Zrotation
									JOINT left_hand
									{
										OFFSET	-110.7	-3.89999	13.6
										CHANNELS 3  Xrotation Yrotation Zrotation
										JOINT left_ee
										{
											OFFSET	-80.8	-5.10001	12.1
											CHANNELS 3  Xrotation Yrotation Zrotation
											End Site
											{
												OFFSET	1	0	0
											}
										}
									}
								}
							}
						}
					}
					JOINT right_clavicle
					{
						OFFSET	43.2	22.4	-70.8
						CHANNELS 3  Xrotation Yrotation Zrotation
						JOINT right_shoulder
						{
							OFFSET	93.9	-5.79999	48.7
							CHANNELS 3  Xrotation Yrotation Zrotation
							JOINT right_elbow
							{
								OFFSET	291.4	-30.8	15.2
								CHANNELS 3  Xrotation Yrotation Zrotation
								JOINT right_lowarm_twist
								{
									OFFSET	110.7	-3.89999	13.6
									CHANNELS 3  Xrotation Yrotation Zrotation
									JOINT right_hand
									{
										OFFSET	110.7	-3.89999	13.6
										CHANNELS 3  Xrotation Yrotation Zrotation
										JOINT right_ee
										{
											OFFSET	80.8	-5.10001	12.1
											CHANNELS 3  Xrotation Yrotation Zrotation
											End Site
											{
												OFFSET	1	0	0
											}
										}
									}
								}
							}
						}
					}
				}
			}
		}
	}
	JOINT left_hip
	{
		OFFSET	-82.8	-127.5	0.300001
		CHANNELS 3  Xrotation Yrotation Zrotation
		JOINT left_knee
		{
			OFFSET	-28.2	-396.7	2.2
			CHANNELS 3  Xrotation Yrotation Zrotation
			JOINT left_ankle
			{
				OFFSET	-11.7	-411.3	35.4
				CHANNELS 3  Xrotation Yrotation Zrotation
				JOINT left_toes
				{
					OFFSET	0	-60	-88.6
					CHANNELS 3  Xrotation Yrotation Zrotation
					JOINT left_foot_ee
					{
						OFFSET	-22.5	-16.5	-42.2
						CHANNELS 3  Xrotation Yrotation Zrotation
						End Site
						{
							OFFSET	1	0	0
						}
					}
				}
			}
		}
	}
	JOINT right_hip
	{
		OFFSET	82.8	-127.5	0.300001
		CHANNELS 3  Xrotation Yrotation Zrotation
		JOINT right_knee
		{
			OFFSET	28.2	-396.7	2.2
			CHANNELS 3  Xrotation Yrotation Zrotation
			JOINT right_ankle
			{
				OFFSET	11.7	-411.3	35.4
				CHANNELS 3  Xrotation Yrotation Zrotation
				JOINT right_toes
				{
					OFFSET	0	-60	-88.6
					CHANNELS 3  Xrotation Yrotation Zrotation
					JOINT right_foot_ee
					{
						OFFSET	22.5	-16.5	-42.2
						CHANNELS 3  Xrotation Yrotation Zrotation
						End Site
						{
							OFFSET	1	0	0
						}
					}
				}
			}
		}
	}
}
MOTION
Frames: 8
Frame Time: 0.02
2955.84 669.002 -676.558 -20.4628 48.0823 18.6532 3.67144 -0.269668 -0.803044 3.67177 -0.218024 -0.818575 3.67473 -0.0952682 -0.841737 3.67381 -0.227005 -0.81613 1.53652 5.33753 0.407848 1.60496 9.0673 0.90994 -0.0 0.0 -0.0 4.62816 22.962 9.10538 -24.5019 -13.9297 65.8014 0.235406 -6.65156 0.0136797 24.499 0.203377 -3.09917 -0.43135 4.36259 -1.01285 -0.0 0.0 -0.0 12.3859 25.7934 -24.2873 -5.01525 9.13622 -53.8801 1.88542 43.0405 -0.743512 37.8058 0.240081 4.73698 3.66641 12.4275 -19.7778 0.0 0.0 0.0 47.9404 7.62222 -9.09152 -12.7364 0.311457 1.92575 27.5802 -20.384 -4.05654 22.7845 -0.0 -0.0 -0.0 0.0 -0.0 4.32573 -4.54118 3.04123 -20.7493 -0.285979 -3.15392 37.6724 -1.25956 4.66177 28.8967 -0.0 -0.0 0.0 0.0 0.0 
2928.59 666.833 -681.723 -19.9437 47.9104 18.6543 3.75983 -0.214691 -0.861794 3.76023 -0.15942 -0.873707 3.76246 -0.0305457 -0.887606 3.7614 -0.170338 -0.871644 1.67773 5.83645 0.0886472 1.7685 10.2033 0.592286 -0.0 0.0 -0.0 4.86352 23.1976 9.43038 -23.4879 -14.0644 65.6453 0.241639 -6.82603 0.0144111 24.7033 0.199476 -3.12497 -0.608807 4.62851 -2.06655 -0.0 0.0 -0.0 12.3503 25.8938 -24.1943 -7.98139 8.65486 -53.9302 1.93859 43.8357 -0.780071 37.3583 0.219041 4.68379 3.69008 12.0038 -20.1523 0.0 0.0 0.0 47.1058 8.38299 -7.90378 -14.3256 0.320066 2.16942 28.8509 -19.5359 -4.17789 23.7553 -0.0 -0.0 -0.0 0.0 -0.0 3.19625 -2.35727 2.80839 -22.5991 -0.255721 -3.43614 37.0774 -0.858817 4.60958 28.6167 -0.0 -0.0 0.0 0.0 0.0 
2895.67 667.674 -689.529 -20.1105 48.7733 18.4393 3.81942 -0.38645 -0.809207 3.81973 -0.334176 -0.832156 3.82443 -0.210453 -0.871701 3.82354 -0.345476 -0.827529 1.24745 5.43151 0.213663 1.32017 9.41655 0.722725 -0.0 0.0 -0.0 4.97628 22.4192 9.61606 -21.0095 -13.8842 65.3735 0.262301 -7.4035 0.0169703 24.8258 0.197092 -3.14044 -0.687948 5.53397 -2.19467 -0.0 0.0 -0.0 12.199 25.8283 -23.8553 -11.1978 7.97688 -54.0098 1.96632 44.2423 -0.799352 36.2405 0.168296 4.55017 3.70084 11.5315 -20.4575 0.0 0.0 0.0 44.1983 9.7006 -6.01659 -14.0097 0.318894 2.12098 29.4786 -18.2021 -4.20529 25.1906 -0.0 -0.0 -0.0 0.0 -0.0 2.56214 0.346127 2.44865 -23.4046 -0.239699 -3.55871 31.9279 2.12101 4.13105 28.6914 -0.0 -0.0 0.0 0.0 0.0 
2872.0 665.29 -701.506 -20.0359 50.5522 18.8147 3.76453 -0.462308 -0.837147 3.76483 -0.408104 -0.864865 3.77085 -0.278034 -0.915004 3.76993 -0.419047 -0.859616 0.752494 4.96842 0.403236 0.806977 8.4741 0.915933 -0.0 0.0 -0.0 5.2626 20.9452 10.0846 -18.6152 -13.9718 65.1104 0.303409 -8.54777 0.0226744 24.909 0.195454 -3.15094 -0.677349 6.2473 -1.81641 -0.0 0.0 -0.0 12.0793 24.92 -23.6805 -13.3663 7.33898 -54.4169 1.85802 42.6224 -0.724883 35.4506 0.134021 4.45519 3.45693 11.0901 -18.9269 0.0 0.0 0.0 42.8502 10.5138 -5.20284 -13.6535 0.31725 2.06635 28.0338 -17.0562 -4.00162 26.106 -0.0 -0.0 -0.0 0.0 -0.0 1.92179 2.84871 2.28228 -25.5125 -0.189628 -3.87831 26.7086 4.24434 3.58859 28.2292 -0.0 -0.0 0.0 0.0 0.0 
2843.2 672.266 -711.453 -19.3599 51.6145 18.4316 3.69503 -0.494835 -0.802984 3.69528 -0.442738 -0.832842 3.70161 -0.315886 -0.888737 3.70079 -0.452276 -0.827701 0.396623 4.71729 0.641497 0.440621 7.85561 1.16836 -0.0 0.0 -0.0 5.76975 19.9574 10.885 -16.4985 -14.1675 65.2923 0.340278 -9.56825 0.0284791 25.061 0.192423 -3.17012 -0.666633 6.72137 -1.54154 -0.0 0.0 -0.0 11.939 23.7285 -23.4804 -16.0302 6.53478 -55.4826 1.71861 40.4058 -0.632464 34.7681 0.105462 4.37275 3.25476 10.6163 -17.7159 0.0 0.0 0.0 41.6015 11.1835 -4.60497 -14.6605 0.321018 2.2208 26.7498 -16.1672 -3.82415 26.7246 -0.0 -0.0 -0.0 0.0 -0.0 1.39476 4.84324 2.0735 -28.1003 -0.112128 -4.26785 22.9151 5.88547 3.163 27.8052 -0.0 -0.0 0.0 0.0 0.0 
2817.52 669.589 -720.913 -17.8999 52.4319 17.3304 3.62543 -0.512323 -0.727669 3.6256 -0.464983 -0.758793 3.6317 -0.347744 -0.819174 3.63108 -0.47275 -0.753979 0.148532 4.64975 0.936808 0.18716 7.50978 1.49211 -0.0 0.0 -0.0 6.16352 19.0793 11.5326 -14.7437 -14.3789 65.3043 0.370981 -10.4135 0.0338059 25.1854 0.189904 -3.18581 -0.648397 7.03095 -1.28919 -0.0 0.0 -0.0 11.7916 22.6044 -23.2481 -18.642 5.76751 -56.1329 1.60603 38.5021 -0.560915 34.2793 0.0856134 4.3135 3.09639 10.1611 -16.8091 0.0 0.0 0.0 39.2918 11.7916 -4.06205 -16.2219 0.321491 2.46036 25.7517 -15.5361 -3.68729 27.1541 -0.0 -0.0 -0.0 0.0 -0.0 1.96859 6.30178 1.36576 -30.1096 -0.0398531 -4.56773 20.1206 7.14205 2.83251 27.4227 -0.0 -0.0 0.0 0.0 0.0 
2799.46 676.069 -731.601 -16.8491 53.2 16.4046 3.44922 -0.539949 -0.648891 3.44931 -0.497565 -0.681933 3.45522 -0.389022 -0.749175 3.45479 -0.502455 -0.678338 -0.130401 4.7125 1.26582 -0.0941177 7.37241 1.86498 -0.0 0.0 -0.0 6.35414 17.7979 11.9026 -12.9141 -14.7221 64.7154 0.40285 -11.2859 0.0398048 25.2797 0.187971 -3.19771 -0.624497 7.196 -1.06267 -0.0 0.0 -0.0 11.6363 21.3791 -22.9971 -21.2631 5.02375 -57.1404 1.50314 36.6695 -0.498154 33.8972 0.0704521 4.26707 2.96533 9.73324 -16.0833 0.0 0.0 0.0 37.2734 11.9949 -4.1451 -17.3179 0.317925 2.62848 24.913 -15.0816 -3.5737 27.4282 -0.0 -0.0 -0.0 0.0 -0.0 2.59226 7.48361 0.745267 -31.5224 0.0172495 -4.77702 18.1178 8.07519 2.5868 27.1185 -0.0 -0.0 0.0 0.0 0.0 
2769.21 677.05 -744.484 -15.3751 53.3747 15.1695 3.46205 -0.52963 -0.631484 3.46214 -0.488374 -0.663905 3.46779 -0.382813 -0.729884 3.46738 -0.493278 -0.660269 -0.293175 4.77444 1.48414 -0.257536 7.31723 2.11273 -0.0 0.0 -0.0 6.50488 16.6891 12.2061 -11.4739 -15.0265 64.2563 0.425876 -11.913 0.0444346 25.3462 0.186596 -3.2061 -0.607746 7.3099 -0.904844 -0.0 0.0 -0.0 11.7895 20.3497 -23.4265 -23.197 4.63151 -58.6632 1.43273 35.3625 -0.456747 33.6007 0.0588998 4.23097 2.86818 9.35684 -15.5724 0.0 0.0 0.0 35.7002 11.9386 -3.96461 -18.1486 0.313079 2.75584 24.2487 -14.7127 -3.48311 27.5916 -0.0 -0.0 -0.0 0.0 -0.0 2.97408 8.34655 0.0380855 -32.5411 0.0616254 -4.92704 16.6634 8.73042 2.4032 26.8973 -0.0 -0.0 0.0 0.0 0.0 
